PathFileType	4	(X/Y/Z)	/Users/itak/Documents/Research/Walk-IL/dataset/trc/00338_00011.trc
DataRate	CameraRate	NumFrames	NumMarkers	Units	OrigDataRate	OrigDataStartFrame	OrigNumFrames
100.000000	100.000000	4	54	mm	100.000000	668	764
Frame#	Time	RPSI			LPSI			L3			STRN			T10			C7			CLAV			RBAK			LBAK			LSHO			LUPA			LAEL			LAOL			LWTS			LWPS			LFRA			LIFD			LHPS			LHTS			RSHO			RUPA			RAEL			RAOL			RWPS			RFRA			RIFD			RHTS			RHPS			RBHD			LFHD			RFHD			LBHD			LHIP			RHIP			RASI			LASI			LKNE			LTHI			LANK			LTIP			LTOE			LMT1			LMT5			LHEE			RKNE			RTHI			RANK			RTIP			RTOE			RMT5			RHEE			RWTS			RMT1			*53			
		X1	Y1	Z1	X2	Y2	Z2	X3	Y3	Z3	X4	Y4	Z4	X5	Y5	Z5	X6	Y6	Z6	X7	Y7	Z7	X8	Y8	Z8	X9	Y9	Z9	X10	Y10	Z10	X11	Y11	Z11	X12	Y12	Z12	X13	Y13	Z13	X14	Y14	Z14	X15	Y15	Z15	X16	Y16	Z16	X17	Y17	Z17	X18	Y18	Z18	X19	Y19	Z19	X20	Y20	Z20	X21	Y21	Z21	X22	Y22	Z22	X23	Y23	Z23	X24	Y24	Z24	X25	Y25	Z25	X26	Y26	Z26	X27	Y27	Z27	X28	Y28	Z28	X29	Y29	Z29	X30	Y30	Z30	X31	Y31	Z31	X32	Y32	Z32	X33	Y33	Z33	X34	Y34	Z34	X35	Y35	Z35	X36	Y36	Z36	X37	Y37	Z37	X38	Y38	Z38	X39	Y39	Z39	X40	Y40	Z40	X41	Y41	Z41	X42	Y42	Z42	X43	Y43	Z43	X44	Y44	Z44	X45	Y45	Z45	X46	Y46	Z46	X47	Y47	Z47	X48	Y48	Z48	X49	Y49	Z49	X50	Y50	Z50	X51	Y51	Z51	X52	Y52	Z52	X53	Y53	Z53	X54	Y54	Z54	

669	6.68	-431.8857116699219	982.3872680664062	1026.304443359375	-434.1464538574219	977.2314453125	896.7915649414062	-437.4682006835938	1036.38818359375	964.2608642578125	-220.8843231201172	1232.416748046875	958.201171875	-460.1332702636719	1154.866821289062	951.37890625	-429.914794921875	1404.9560546875	936.1873779296875	-271.5483093261719	1355.294311523438	951.763427734375	-475.5774536132812	1264.3759765625	1003.635498046875	-433.6291198730469	1368.159057617188	834.7274169921875	-345.2486267089844	1387.071655273438	784.4344482421875	-349.7094116210938	1266.529296875	716.5498046875	-310.83837890625	1065.498657226562	705.5350952148438	-379.8306274414062	1045.65673828125	752.3195190429688	-194.6634979248047	834.9521484375	763.8458251953125	-224.2870635986328	819.32080078125	703.677734375	-283.6787719726562	962.5613403320312	700.8140258789062	-175.3100891113281	675.2489624023438	774.24267578125	-221.5335693359375	748.5609741210938	711.7094116210938	-172.7003326416016	757.3811645507812	752.0819702148438	-382.12890625	1395.413818359375	1101.277099609375	-396.2997436523438	1333.349609375	1166.00244140625	-381.4898986816406	1071.269287109375	1228.885131835938	-411.2555236816406	1053.638061523438	1141.195434570312	-277.9156799316406	842.5317993164062	1274.29443359375	-352.2202758789062	1006.88134765625	1246.639892578125	-184.8964996337891	700.9725341796875	1231.864501953125	-186.699462890625	773.7037963867188	1241.94189453125	-245.2666931152344	762.9561157226562	1277.132446289062	-373.3601684570312	1618.995727539062	1023.643615722656	-199.9158630371094	1611.708251953125	908.6903686523438	-211.4256591796875	1614.893310546875	1009.146606445312	-384.3721313476562	1612.827270507812	879.8710327148438	-314.3957824707031	904.429443359375	818.9273681640625	-349.597900390625	933.8955078125	1127.32958984375	-244.6958465576172	966.7151489257812	1090.668212890625	-227.4783477783203	955.29931640625	850.3837890625	-259.1279296875	460.4977416992188	843.113525390625	-274.5520629882812	602.0328979492188	817.5205078125	-361.60205078125	48.98817443847656	882.7887573242188	-310.4291076660156	246.8322296142578	853.363525390625	-158.5006103515625	55.83193206787109	946.8049926757812	nan	nan	nan	-236.9882507324219	49.09458541870117	873.1177978515625	-396.3713989257812	47.04567337036133	949.9437255859375	-291.8091125488281	471.0346984863281	1122.762451171875	-263.6517028808594	739.4050903320312	1164.847412109375	-361.7851867675781	44.7066764831543	1090.574584960938	-285.4114379882812	350.4495544433594	1109.111450195312	-169.3438262939453	53.22099685668945	1042.441284179688	-265.6463317871094	33.3204231262207	1106.731323242188	-410.7565612792969	59.90697479248047	1042.755615234375	-233.9166412353516	864.9933471679688	1215.742431640625	-219.5528564453125	53.06357574462891	996.5527954101562	nan	nan	nan	
670	6.69	-430.86962890625	981.7177124023438	1028.037841796875	-433.3563232421875	976.2473754882812	898.5070190429688	-437.0857543945312	1036.0224609375	965.779052734375	-220.3139038085938	1231.872924804688	958.6051635742188	-459.68017578125	1154.214965820312	952.2564697265625	-429.52880859375	1404.350708007812	937.202880859375	-271.0465393066406	1354.73779296875	952.3565063476562	-475.1309814453125	1263.700439453125	1004.516540527344	-433.3843078613281	1367.594116210938	835.6170043945312	-345.0721740722656	1386.491821289062	785.1197509765625	-349.4857177734375	1265.919311523438	717.3270263671875	-309.9174499511719	1064.947387695312	706.1845092773438	-379.0403442382812	1044.92041015625	752.8973999023438	-193.3567352294922	834.7412719726562	764.993896484375	-222.7695770263672	819.0263061523438	704.7200317382812	-282.5402526855469	962.0250854492188	701.67138671875	-173.4519195556641	675.1792602539062	775.3718872070312	-219.7573394775391	748.3278198242188	712.7278442382812	-171.0253143310547	757.3287353515625	753.1998291015625	-381.3740539550781	1394.432373046875	1102.23779296875	-395.4102478027344	1332.023315429688	1166.840942382812	-380.3426513671875	1069.610595703125	1228.40087890625	-410.3071594238281	1052.375244140625	1140.623901367188	-277.3483276367188	840.3656005859375	1272.649047851562	-351.1209411621094	1005.072387695312	1245.736083984375	-185.6004180908203	698.2550659179688	1229.159057617188	-186.8649139404297	771.0032348632812	1239.323120117188	-245.1544494628906	760.5579223632812	1275.097534179688	-372.8242492675781	1618.260009765625	1024.964233398438	-199.7499847412109	1611.467651367188	909.3740844726562	-210.9320068359375	1614.408813476562	1009.923828125	-384.3427734375	1612.361572265625	881.2428588867188	-313.6126403808594	903.4251708984375	820.7159423828125	-348.3958740234375	933.7222900390625	1128.711791992188	-243.5301513671875	966.5579833984375	1091.978393554688	-226.5212097167969	954.9840087890625	851.7760009765625	-258.8553161621094	460.0410461425781	844.3733520507812	-273.8820495605469	601.5286254882812	819.3333129882812	-361.4868469238281	49.21573638916016	882.93310546875	-310.0799865722656	246.569580078125	854.1023559570312	-158.3725891113281	53.94604873657227	947.4774780273438	nan	nan	nan	-236.8582763671875	48.76930236816406	873.490478515625	-396.43701171875	46.9242057800293	949.9725952148438	-291.8816833496094	470.332763671875	1122.52294921875	-262.7108459472656	739.1444091796875	1165.831909179688	-361.6260986328125	45.31803512573242	1089.70751953125	-285.4406433105469	349.9732666015625	1107.966186523438	-168.6627960205078	52.25001525878906	1041.917846679688	-265.4331970214844	33.54312896728516	1106.197387695312	-410.5797424316406	59.66211700439453	1041.582641601562	-233.6733551025391	862.6522216796875	1213.733154296875	-219.5444793701172	51.81390762329102	996.1522216796875	nan	nan	nan	
671	6.7	-429.9843444824219	981.0552368164062	1029.7919921875	-432.6026000976562	975.4913940429688	900.239501953125	-436.8479614257812	1035.784912109375	967.3204956054688	-219.7581481933594	1231.427734375	959.0477294921875	-459.2879638671875	1153.671875	953.111572265625	-429.1531372070312	1403.85205078125	938.1278076171875	-270.5653076171875	1354.265869140625	952.9298706054688	-474.7232360839844	1263.112426757812	1005.309692382812	-433.1034240722656	1367.071533203125	836.4511108398438	-344.8577270507812	1385.945678710938	785.7335205078125	-349.2554626464844	1265.345336914062	718.0619506835938	-309.0636901855469	1064.4326171875	706.7288818359375	-378.3044738769531	1044.231201171875	753.4086303710938	-192.0923004150391	834.6021728515625	766.0433959960938	-221.2904663085938	818.7823486328125	705.6727905273438	-281.4596557617188	961.5613403320312	702.416259765625	-171.5185394287109	675.1901245117188	776.4049682617188	-218.0099945068359	748.1439819335938	713.6753540039062	-169.3026580810547	757.3973999023438	754.2047119140625	-380.7033081054688	1393.56005859375	1103.146606445312	-394.6091003417969	1330.797729492188	1167.61181640625	-379.2857055664062	1068.0439453125	1227.71923828125	-409.4368286132812	1051.238891601562	1139.844604492188	-277.10107421875	838.214111328125	1270.846069335938	-350.1248779296875	1003.340393066406	1244.641235351562	-186.8114471435547	695.4404907226562	1226.3818359375	-187.4452362060547	768.2191162109375	1236.568969726562	-245.4631652832031	758.1282348632812	1272.941772460938	-372.3034973144531	1617.576782226562	1026.180053710938	-199.5762939453125	1611.274536132812	909.9874877929688	-210.4367980957031	1613.980834960938	1010.618591308594	-384.2938537597656	1611.938110351562	882.5039672851562	-312.7795104980469	902.7332153320312	822.503662109375	-347.4584655761719	933.415283203125	1130.151733398438	-242.6319122314453	966.2671508789062	1093.341064453125	-225.5655975341797	954.88720703125	853.2796020507812	-259.0094299316406	460.0057067871094	845.3250732421875	-273.2278442382812	601.32763671875	820.990478515625	-361.4052429199219	49.39204025268555	882.945068359375	-310.0454711914062	246.4496765136719	854.5576782226562	-158.2357177734375	52.43428421020508	947.7894897460938	nan	nan	nan	-236.7604217529297	48.45247650146484	873.6434936523438	-396.5120544433594	46.90035629272461	949.9432983398438	-292.0860595703125	469.5140075683594	1121.731201171875	-262.0347290039062	738.749755859375	1166.874145507812	-361.4916687011719	46.05048370361328	1088.470825195312	-285.582275390625	349.4525756835938	1106.522827148438	-167.9214324951172	51.22690200805664	1041.36279296875	-265.2090759277344	33.83841323852539	1105.5068359375	-410.3197937011719	59.39516448974609	1039.921752929688	-233.7086791992188	860.2396850585938	1211.568969726562	-219.4931030273438	50.49356842041016	995.5538330078125	nan	nan	nan	
672	6.71	-429.2173767089844	980.4278564453125	1031.564208984375	-431.8859252929688	975.0103759765625	901.992431640625	-436.7203369140625	1035.659790039062	968.8860473632812	-219.2153472900391	1231.09912109375	959.5714111328125	-458.9385375976562	1153.246337890625	953.9685668945312	-428.7717895507812	1403.454956054688	938.966552734375	-270.1131896972656	1353.892578125	953.5211181640625	-474.3522033691406	1262.618408203125	1006.04296875	-432.7831726074219	1366.583740234375	837.2523193359375	-344.6081237792969	1385.449829101562	786.3145141601562	-349.0028991699219	1264.832763671875	718.7628173828125	-308.2820129394531	1063.978393554688	707.203857421875	-377.6176452636719	1043.619873046875	753.8656616210938	-190.8799438476562	834.54150390625	766.993896484375	-219.8695068359375	818.6027221679688	706.5386962890625	-280.4402465820312	961.2030029296875	703.0570068359375	-169.5530853271484	675.27294921875	777.3462524414062	-216.3149566650391	748.0154418945312	714.5568237304688	-167.5530395507812	757.6005859375	755.1053466796875	-380.1331176757812	1392.826171875	1104.0205078125	-393.9096069335938	1329.7138671875	1168.328491210938	-378.3113098144531	1066.607666015625	1226.843017578125	-408.626953125	1050.269897460938	1138.865966796875	-277.1380004882812	836.1298828125	1268.912963867188	-349.2122192382812	1001.735778808594	1243.360229492188	-188.5456848144531	692.5550537109375	1223.54736328125	-188.4256744384766	765.3905639648438	1233.697998046875	-246.1819915771484	755.7172241210938	1270.696411132812	-371.7963562011719	1616.965454101562	1027.295043945312	-199.3956604003906	1611.121459960938	910.5390625	-209.9409484863281	1613.610473632812	1011.229431152344	-384.2135314941406	1611.564331054688	883.6469116210938	-311.9132080078125	902.3777465820312	824.2945556640625	-346.7545776367188	932.9996948242188	1131.644165039062	-241.9696197509766	965.8679809570312	1094.752563476562	-224.6310882568359	954.9788818359375	854.860595703125	-259.5733032226562	460.3473205566406	845.9511108398438	-272.6314697265625	601.39404296875	822.4981079101562	-361.3433837890625	49.48930358886719	882.8204956054688	-310.2858276367188	246.4390563964844	854.7301635742188	-158.0908355712891	51.26826858520508	947.8283081054688	nan	nan	nan	-236.6634216308594	48.13418960571289	873.6226196289062	-396.6010131835938	46.96252059936523	949.8389892578125	-292.3858337402344	468.6191711425781	1120.495971679688	-261.5925598144531	738.2463989257812	1167.96875	-361.3898620605469	46.86172866821289	1086.992065429688	-285.8146667480469	348.8885192871094	1104.9091796875	-167.1933135986328	50.23618698120117	1040.773071289062	-264.9624938964844	34.18446731567383	1104.717651367188	-410.0160522460938	59.12985610961914	1037.978759765625	-234.0136413574219	857.7926025390625	1209.264282226562	-219.4682006835938	49.13728713989258	994.76318359375	nan	nan	nan	
